<?xml version="1.0" encoding="UTF-8" standalone="no"?>
<!-- Generator: Adobe Illustrator 19.0.0, SVG Export Plug-In . SVG Version: 6.00 Build 0)  -->

<svg
   xmlns:dc="http://purl.org/dc/elements/1.1/"
   xmlns:cc="http://creativecommons.org/ns#"
   xmlns:rdf="http://www.w3.org/1999/02/22-rdf-syntax-ns#"
   xmlns:svg="http://www.w3.org/2000/svg"
   xmlns="http://www.w3.org/2000/svg"
   xmlns:sodipodi="http://sodipodi.sourceforge.net/DTD/sodipodi-0.dtd"
   xmlns:inkscape="http://www.inkscape.org/namespaces/inkscape"
   version="1.1"
   id="Layer_1"
   x="0px"
   y="0px"
   viewBox="0 0 542 512"
   xml:space="preserve"
   inkscape:version="0.91 r13725"
   sodipodi:docname="chest.svg"
   width="542"
   height="512"><metadata
     id="metadata3653"><rdf:RDF><cc:Work
         rdf:about=""><dc:format>image/svg+xml</dc:format><dc:type
           rdf:resource="http://purl.org/dc/dcmitype/StillImage" /><dc:title></dc:title></cc:Work></rdf:RDF></metadata><defs
     id="defs3651" /><sodipodi:namedview
     pagecolor="#ffffff"
     bordercolor="#666666"
     borderopacity="1"
     objecttolerance="10"
     gridtolerance="10"
     guidetolerance="10"
     inkscape:pageopacity="0"
     inkscape:pageshadow="2"
     inkscape:window-width="1282"
     inkscape:window-height="761"
     id="namedview3649"
     showgrid="false"
     inkscape:zoom="0.76373057"
     inkscape:cx="290.47737"
     inkscape:cy="222.41"
     inkscape:window-x="0"
     inkscape:window-y="0"
     inkscape:window-maximized="0"
     inkscape:current-layer="Layer_1" /><g
     id="g3531"
     transform="translate(28,-8)"><path
       style="fill:#5a482e"
       d="m 378.93,449.306 0,31.714 c 0,2.964 2.425,5.39 5.39,5.39 l 37.252,0 c 2.964,0 5.39,-2.425 5.39,-5.39 l 0,-31.714 -48.032,0 z"
       id="path3533"
       inkscape:connector-curvature="0" /><path
       style="fill:#5a482e"
       d="m 58.041,481.02 c 0,2.964 2.425,5.39 5.39,5.39 l 37.254,0 c 2.964,0 5.39,-2.425 5.39,-5.39 l 0,-31.714 -48.034,0 0,31.714 z"
       id="path3535"
       inkscape:connector-curvature="0" /></g><path
     style="fill:#bf953e"
     d="m 318.763,56.821 -96.523,0 c -2.963,0 -5.39,2.425 -5.39,5.39 l 0,25.333 c 0,2.963 2.425,5.39 5.39,5.39 l 96.522,0 c 2.964,0 5.39,-2.425 5.39,-5.39 l 0,-25.333 c 0,-2.965 -2.426,-5.39 -5.389,-5.39 z"
     id="path3537"
     inkscape:connector-curvature="0" /><path
     style="opacity:0.1;enable-background:new"
     d="m 429.517,473.02 0,-31.714 -22.585,0 0,31.714 c 0,2.964 2.425,5.39 5.39,5.39 l 22.584,0 c -2.965,-0.001 -5.389,-2.426 -5.389,-5.39 z"
     id="path3539"
     inkscape:connector-curvature="0" /><path
     style="opacity:0.1;enable-background:new"
     d="m 108.302,473.02 0,-31.714 -22.261,0 0,31.714 c 0,2.964 2.425,5.39 5.39,5.39 l 22.263,0 c -2.965,-0.001 -5.392,-2.426 -5.392,-5.39 z"
     id="path3541"
     inkscape:connector-curvature="0" /><path
     style="opacity:0.1;enable-background:new"
     d="m 239.217,87.543 0,-25.332 c 0,-2.964 2.425,-5.39 5.39,-5.39 l -22.367,0 c -2.963,0 -5.39,2.425 -5.39,5.39 l 0,25.333 c 0,2.963 2.425,5.39 5.39,5.39 l 22.366,0 c -2.964,-10e-4 -5.389,-2.427 -5.389,-5.391 z"
     id="path3543"
     inkscape:connector-curvature="0" /><path
     style="fill:#efba50"
     d="m 449.508,259.971 c 0,2.964 -2.425,5.39 -5.389,5.39 l -347.233,0 c -2.964,0 -5.39,-2.425 -5.39,-5.39 l 0,-172.394 c 0,-2.964 2.425,-5.39 5.39,-5.39 l 347.232,0 c 2.963,0 5.389,2.425 5.389,5.39 l 0,172.395 10e-4,0 z"
     id="path3545"
     inkscape:connector-curvature="0" /><path
     style="opacity:0.1;enable-background:new"
     d="m 125.4,259.971 0,-172.394 c 0,-2.964 2.425,-5.39 5.39,-5.39 l -33.904,0 c -2.964,0 -5.39,2.425 -5.39,5.39 l 0,172.395 c 0,2.964 2.425,5.39 5.39,5.39 l 33.903,0 c -2.964,-0.001 -5.389,-2.426 -5.389,-5.391 z"
     id="path3547"
     inkscape:connector-curvature="0" /><path
     style="fill:#d69ef0"
     d="m 182.784,270.082 c -1.414,1.414 -3.393,2.117 -5.395,1.917 l -96.233,-9.616 c -2.949,-0.295 -5.378,-2.479 -5.987,-5.382 l -8.206,-39.119 c -0.466,-2.22 0.214,-4.517 1.807,-6.11 l 55.704,-55.705 c 1.593,-1.593 3.889,-2.273 6.112,-1.808 l 39.118,8.207 c 2.904,0.609 5.087,3.039 5.381,5.987 l 9.617,96.233 c 0.2,2.002 -0.504,3.981 -1.918,5.396 z"
     id="path3549"
     inkscape:connector-curvature="0" /><path
     style="fill:#bc81e2"
     d="m 144.209,193.869 29.22,-29.22 c -0.953,-1.087 -2.244,-1.874 -3.726,-2.184 l -39.12,-8.206 c -1.159,-0.245 -2.335,-0.168 -3.425,0.182 l 9.793,46.686 -23.118,23.119 -46.686,-9.793 c -0.348,1.089 -0.425,2.266 -0.181,3.426 l 8.206,39.12 c 0.311,1.481 1.097,2.773 2.184,3.725 l 29.334,-29.334 76.105,38.701 -38.586,-76.222 z"
     id="path3551"
     inkscape:connector-curvature="0" /><polygon
     style="fill:#efc7ff"
     points="116.209,201.869 68.65,191.893 68.594,191.947 78.572,239.507 "
     id="polygon3553"
     transform="translate(28,-8)" /><path
     style="opacity:0.1;enable-background:new"
     d="m 93.785,249.753 c -2.949,-0.295 -5.378,-2.479 -5.987,-5.381 l -8.206,-39.119 c -0.466,-2.219 0.214,-4.517 1.807,-6.11 l -12.628,12.629 c -1.593,1.592 -2.274,3.889 -1.807,6.11 l 8.206,39.119 c 0.609,2.903 3.039,5.088 5.987,5.382 l 96.233,9.616 c 2.001,0.2 -83.605,-22.246 -83.605,-22.246 z"
     id="path3555"
     inkscape:connector-curvature="0" /><path
     style="fill:#f5bfb6"
     d="m 287.222,237.342 c -1.61,0 -3.217,-0.613 -4.444,-1.841 l -50.861,-50.903 c -1.179,-1.179 -1.839,-2.778 -1.839,-4.445 0,-1.667 0.66,-3.265 1.839,-4.445 l 50.861,-50.903 c 1.226,-1.227 2.834,-1.84 4.444,-1.84 1.606,0 3.212,0.612 4.438,1.84 l 50.864,50.903 c 1.176,1.18 1.839,2.778 1.839,4.445 0,1.667 -0.664,3.267 -1.839,4.445 l -50.864,50.903 c -1.226,1.228 -2.832,1.841 -4.438,1.841 z"
     id="path3557"
     inkscape:connector-curvature="0" /><g
     id="g3559"
     transform="translate(28,-8)"><path
       style="fill:#e8a09c"
       d="M 314.524,183.708 263.66,132.805 c -1.17,-1.172 -2.692,-1.778 -4.226,-1.831 l 0,56.965 56.918,0 c -0.054,-1.589 -0.703,-3.102 -1.828,-4.231 z"
       id="path3561"
       inkscape:connector-curvature="0" /><path
       style="fill:#e8a09c"
       d="m 203.918,192.598 50.861,50.903 c 1.132,1.131 2.585,1.735 4.064,1.823 l 0,-56.793 -56.746,0 c 0.091,1.53 0.733,2.977 1.821,4.067 z"
       id="path3563"
       inkscape:connector-curvature="0" /></g><path
     style="fill:#e28883"
     d="m 287.222,202.872 c -0.807,0 -1.61,-0.306 -2.224,-0.918 l -19.563,-19.577 c -0.587,-0.59 -0.917,-1.391 -0.917,-2.224 0,-0.834 0.33,-1.633 0.917,-2.221 l 19.563,-19.579 c 0.613,-0.612 1.417,-0.92 2.224,-0.92 0.802,0 1.606,0.307 2.218,0.92 l 19.564,19.579 c 0.586,0.589 0.917,1.389 0.917,2.221 0,0.833 -0.33,1.633 -0.917,2.224 l -19.564,19.577 c -0.612,0.613 -1.415,0.918 -2.218,0.918 z"
     id="path3565"
     inkscape:connector-curvature="0" /><path
     style="fill:#37c4b3"
     d="m 491.447,202.829 -27.063,-41.644 c -1.539,-2.364 -4.143,-3.787 -6.935,-3.787 l -97.549,0 c -2.79,0 -5.396,1.423 -6.932,3.787 l -27.067,41.644 c -2.008,3.091 -1.793,7.15 0.531,10.005 l 43.096,52.929 78.292,0 43.096,-52.93 c 2.325,-2.855 2.541,-6.914 0.531,-10.004 z"
     id="path3567"
     inkscape:connector-curvature="0" /><g
     id="g3569"
     transform="translate(28,-8)"><path
       style="fill:#53e7d3"
       d="m 324.97,169.184 -27.068,41.644 c -1.024,1.577 -1.467,3.406 -1.348,5.2 l 63.879,0 -32.304,-49.7 c -1.26,0.652 -2.358,1.621 -3.159,2.856 z"
       id="path3571"
       inkscape:connector-curvature="0" /><path
       style="fill:#53e7d3"
       d="M 463.447,210.829 436.38,169.185 c -0.802,-1.235 -1.898,-2.204 -3.158,-2.855 l -32.305,49.7 63.882,0 c 0.118,-1.796 -0.325,-3.625 -1.352,-5.201 z"
       id="path3573"
       inkscape:connector-curvature="0" /></g><path
     style="opacity:0.1;enable-background:new"
     d="m 369.528,265.763 19.724,0 -43.096,-52.93 c -2.325,-2.855 -2.539,-6.914 -0.53,-10.005 l 27.066,-41.644 c 1.535,-2.364 4.142,-3.787 6.933,-3.787 l -19.726,0 c -2.79,0 -5.396,1.423 -6.932,3.787 L 325.9,202.828 c -2.008,3.091 -1.793,7.15 0.531,10.005 l 43.097,52.93 z"
     id="path3575"
     inkscape:connector-curvature="0" /><g
     id="g3577"
     transform="translate(28,-8)"><polygon
       style="fill:#53e7d3"
       points="413.63,215.4 413.223,215.4 413.495,215.819 "
       id="polygon3579" /><polygon
       style="fill:#53e7d3"
       points="348.127,215.4 347.718,215.4 347.854,215.819 "
       id="polygon3581" /><polygon
       style="fill:#53e7d3"
       points="394.71,273.763 413.426,216.029 347.923,216.029 366.639,273.763 "
       id="polygon3583" /></g><polygon
     style="fill:#b9f5ed"
     points="413.63,216.029 380.722,165.398 380.627,165.398 347.718,216.029 "
     id="polygon3585"
     transform="translate(28,-8)" /><g
     id="g3587"
     transform="translate(28,-8)"><circle
       style="fill:#ffffff"
       cx="166.619"
       cy="263.75299"
       r="25.339001"
       id="circle3589" /><path
       style="fill:#ffffff"
       d="m 267.538,218.828 c -13.75,-2.593 -27,6.448 -29.594,20.198 -2.597,13.747 6.446,26.996 20.194,29.59 13.749,2.598 27,-6.443 29.595,-20.194 2.595,-13.747 -6.445,-26.998 -20.195,-29.594 z"
       id="path3591"
       inkscape:connector-curvature="0" /><circle
       style="fill:#ffffff"
       cx="212.783"
       cy="244.31799"
       r="25.339001"
       id="circle3593" /><path
       style="fill:#ffffff"
       d="m 323.158,240.748 c -11.766,-7.572 -27.443,-4.169 -35.018,7.597 -7.568,11.766 -4.168,27.444 7.598,35.013 11.768,7.573 27.443,4.172 35.016,-7.595 7.57,-11.767 4.172,-27.446 -7.596,-35.015 z"
       id="path3595"
       inkscape:connector-curvature="0" /></g><path
     style="fill:#bf953e"
     d="m 475.937,446.479 c 0,2.964 -2.425,5.39 -5.39,5.39 l -400.091,0 c -2.963,0 -5.39,-2.425 -5.39,-5.39 l 0,-186.378 c 0,-2.964 2.425,-5.39 5.39,-5.39 l 400.091,0 c 2.964,0 5.39,2.425 5.39,5.39 l 0,186.378 z"
     id="path3597"
     inkscape:connector-curvature="0" /><path
     style="opacity:0.1;enable-background:new"
     d="m 98.602,446.479 0,-186.378 c 0,-2.964 2.425,-5.39 5.39,-5.39 l -33.537,0 c -2.963,0 -5.39,2.425 -5.39,5.39 l 0,186.378 c 0,2.964 2.425,5.39 5.39,5.39 l 33.536,0 c -2.963,-0.001 -5.389,-2.425 -5.389,-5.39 z"
     id="path3599"
     inkscape:connector-curvature="0" /><path
     style="fill:#efba50"
     d="m 101.868,420.271 c -2.964,0 -5.39,-2.425 -5.39,-5.39 l 0,-123.185 c 0,-2.964 2.425,-5.39 5.39,-5.39 l 337.267,0 c 2.964,0 5.39,2.425 5.39,5.39 l 0,123.186 c 0,2.964 -2.425,5.39 -5.39,5.39 l -337.267,0 z"
     id="path3601"
     inkscape:connector-curvature="0" /><path
     style="opacity:0.1;enable-background:new"
     d="m 129.976,414.882 0,-123.186 c 0,-2.964 2.425,-5.39 5.39,-5.39 l -33.498,0 c -2.964,0 -5.39,2.425 -5.39,5.39 l 0,123.186 c 0,2.964 2.425,5.39 5.39,5.39 l 33.497,0 c -2.964,-10e-4 -5.389,-2.426 -5.389,-5.39 z"
     id="path3603"
     inkscape:connector-curvature="0" /><path
     style="fill:#a87b2c"
     d="m 225.267,254.711 0,100.973 c 0,2.964 2.425,5.39 5.39,5.39 l 79.688,0 c 2.964,0 5.39,-2.425 5.39,-5.39 l 0,-100.973 -90.468,0 z"
     id="path3605"
     inkscape:connector-curvature="0" /><path
     style="fill:#fdf276"
     d="m 203.869,163.924 c -1.861,0 -3.485,-1.237 -3.98,-3.02 -3.923,-14.17 -6.434,-16.669 -20.645,-20.581 -1.792,-0.493 -3.033,-2.116 -3.033,-3.965 0,-1.853 1.241,-3.473 3.033,-3.965 14.211,-3.913 16.722,-6.411 20.645,-20.581 0.495,-1.783 2.119,-3.017 3.98,-3.017 1.857,0 3.485,1.234 3.979,3.017 3.923,14.17 6.43,16.668 20.648,20.581 1.789,0.492 3.025,2.113 3.025,3.965 0,1.849 -1.236,3.472 -3.025,3.965 -14.218,3.912 -16.726,6.411 -20.648,20.581 -0.494,1.783 -2.121,3.02 -3.979,3.02 z"
     id="path3607"
     inkscape:connector-curvature="0" /><g
     id="g3609"
     transform="translate(28,-8)"><path
       style="fill:#ffc753"
       d="m 508.667,136.319 c -15.659,-4.308 -18.421,-7.061 -22.741,-22.668 -0.545,-1.966 -2.337,-3.325 -4.383,-3.325 -2.05,0 -3.84,1.358 -4.383,3.325 -4.323,15.607 -7.087,18.36 -22.741,22.668 -1.972,0.543 -3.341,2.329 -3.341,4.369 0,2.039 1.37,3.824 3.341,4.369 15.654,4.308 18.418,7.061 22.741,22.667 0.543,1.964 2.333,3.327 4.383,3.327 2.046,0 3.839,-1.363 4.383,-3.327 4.321,-15.607 7.081,-18.36 22.741,-22.667 1.971,-0.543 3.333,-2.33 3.333,-4.369 0,-2.039 -1.363,-3.825 -3.333,-4.369 z"
       id="path3611"
       inkscape:connector-curvature="0" /><path
       style="fill:#ffc753"
       d="M 57.59,51.583 C 41.931,47.276 39.172,44.522 34.849,28.916 34.304,26.95 32.512,25.59 30.466,25.59 c -2.05,0 -3.84,1.359 -4.385,3.326 C 21.76,44.523 18.996,47.276 3.342,51.583 1.369,52.127 0,53.913 0,55.952 c 0,2.038 1.369,3.823 3.341,4.368 15.654,4.309 18.418,7.062 22.739,22.668 0.545,1.964 2.334,3.327 4.385,3.327 2.046,0 3.838,-1.363 4.383,-3.327 4.322,-15.607 7.082,-18.36 22.741,-22.668 1.971,-0.544 3.332,-2.329 3.332,-4.368 10e-4,-2.039 -1.361,-3.825 -3.331,-4.369 z"
       id="path3613"
       inkscape:connector-curvature="0" /></g><path
     style="fill:#5a482e"
     d="m 286.999,292.534 c 0,-9.165 -7.384,-16.594 -16.498,-16.594 -9.108,0 -16.497,7.429 -16.497,16.594 0,6.311 3.505,11.798 8.66,14.602 l 0,24.978 c 0,4.328 3.509,7.837 7.837,7.837 4.328,0 7.837,-3.509 7.837,-7.837 l 0,-24.976 c 5.157,-2.805 8.661,-8.292 8.661,-14.604 z"
     id="path3615"
     inkscape:connector-curvature="0" /><path
     style="opacity:0.1;enable-background:new"
     d="m 225.267,254.711 0,100.973 c 0,2.964 2.425,5.39 5.39,5.39 l 22.16,0 c -2.964,0 -5.39,-2.425 -5.39,-5.39 l 0,-100.973 -22.16,0 z"
     id="path3617"
     inkscape:connector-curvature="0" /><g
     id="g3619" /><g
     id="g3621" /><g
     id="g3623" /><g
     id="g3625" /><g
     id="g3627" /><g
     id="g3629" /><g
     id="g3631" /><g
     id="g3633" /><g
     id="g3635" /><g
     id="g3637" /><g
     id="g3639" /><g
     id="g3641" /><g
     id="g3643" /><g
     id="g3645" /><g
     id="g3647" /></svg>