<?xml version="1.0" encoding="iso-8859-1"?>
<!-- Generator: Adobe Illustrator 19.0.0, SVG Export Plug-In . SVG Version: 6.00 Build 0)  -->
<svg xmlns="http://www.w3.org/2000/svg" xmlns:xlink="http://www.w3.org/1999/xlink" version="1.1" id="Capa_1" x="0px" y="0px" viewBox="0 0 455.08 455.08" style="enable-background:new 0 0 455.08 455.08;" xml:space="preserve" width="512" height="512">
<g>
	<polygon style="fill:#FFE29E;" points="279.63,150.08 279.63,190.08 227.54,220.08 175.45,190.08 175.45,150.08  "/>
	<path style="fill:#FFF1CF;" d="M390.3,372.93c6.02,8.49,9.57,18.86,9.57,30.06c0,28.77-23.32,52.09-52.09,52.09H107.3   c-28.77,0-52.09-23.32-52.09-52.09c0-11.2,3.55-21.57,9.56-30.06l110.68-156.28v-26.57h104.18v26.57L390.3,372.93z"/>
	<polygon style="fill:#FFF1CF;" points="249.79,140.08 249.79,190.08 227.54,220.08 205.61,190.08 205.61,140.08  "/>
	<polygon style="fill:#FFFFFF;" points="249.79,226.2 299.68,296.65 227.87,342 155.71,296.65 205.61,226.2 205.61,190.08    249.79,190.08  "/>
	<path style="fill:#E44670;" d="M365.82,390.27l-66.3-93.62h-30l48.26,128.43h30c12.18,0,22.09-9.91,22.09-22.09   C369.87,397.2,367.67,392.87,365.82,390.27z"/>
	<path style="fill:#FF6288;" d="M335.82,390.27c1.85,2.6,4.05,6.93,4.05,12.72c0,12.18-9.91,22.09-22.09,22.09H107.3   c-12.18,0-22.09-9.91-22.09-22.09c0-5.79,2.2-10.12,4.05-12.72l66.29-93.62h113.97L335.82,390.27z"/>
	<path style="fill:#FFF1CF;" d="M279.63,120.08c11.04,0,20,8.95,20,20s-8.96,20-20,20H175.45c-11.05,0-20-8.95-20-20s8.95-20,20-20   H279.63z"/>
	<path style="fill:#E44670;" d="M250.55,0.001c-1.96,0.01-3.86,0.24-5.69,0.66l-16.85,89.42c0.09,0.06,0.13,0.08,0.13,0.08   s49.16-27.15,48.91-64.02C276.95,11.601,265.08-0.099,250.55,0.001z"/>
	<path style="fill:#FF6288;" d="M257.05,26.141c0.15,35.72-27.32,62.32-29.04,63.94c-2.77-1.5-49.4-27.49-49.64-63.27   c-0.1-14.54,11.61-26.4,26.14-26.5c9.92-0.06,18.57,5.37,23.11,13.43c3.56-6.52,9.79-11.38,17.24-13.08   C251.8,3.301,257,13.681,257.05,26.141z"/>
</g>















</svg>
