<?xml version="1.0" encoding="UTF-8" standalone="no"?>
<!-- Generator: Adobe Illustrator 18.0.0, SVG Export Plug-In . SVG Version: 6.00 Build 0)  -->

<svg
   xmlns:dc="http://purl.org/dc/elements/1.1/"
   xmlns:cc="http://creativecommons.org/ns#"
   xmlns:rdf="http://www.w3.org/1999/02/22-rdf-syntax-ns#"
   xmlns:svg="http://www.w3.org/2000/svg"
   xmlns="http://www.w3.org/2000/svg"
   xmlns:sodipodi="http://sodipodi.sourceforge.net/DTD/sodipodi-0.dtd"
   xmlns:inkscape="http://www.inkscape.org/namespaces/inkscape"
   version="1.1"
   id="Capa_1"
   x="0px"
   y="0px"
   viewBox="0 0 489.418 489.418"
   style="enable-background:new 0 0 489.418 489.418;"
   xml:space="preserve"
   inkscape:version="0.91 r13725"
   sodipodi:docname="mission.svg"><metadata
     id="metadata43"><rdf:RDF><cc:Work
         rdf:about=""><dc:format>image/svg+xml</dc:format><dc:type
           rdf:resource="http://purl.org/dc/dcmitype/StillImage" /></cc:Work></rdf:RDF></metadata><defs
     id="defs41" /><sodipodi:namedview
     pagecolor="#ffffff"
     bordercolor="#666666"
     borderopacity="1"
     objecttolerance="10"
     gridtolerance="10"
     guidetolerance="10"
     inkscape:pageopacity="0"
     inkscape:pageshadow="2"
     inkscape:window-width="1440"
     inkscape:window-height="837"
     id="namedview39"
     showgrid="false"
     inkscape:zoom="0.4822054"
     inkscape:cx="244.709"
     inkscape:cy="244.709"
     inkscape:window-x="-8"
     inkscape:window-y="-8"
     inkscape:window-maximized="1"
     inkscape:current-layer="Capa_1" /><g
     id="g3"
     style="fill:#ffcc00"><path
       d="M244.709,389.496c18.736,0,34.332-14.355,35.91-33.026l24.359-290.927c1.418-16.873-4.303-33.553-15.756-46.011   C277.783,7.09,261.629,0,244.709,0s-33.074,7.09-44.514,19.532C188.74,31.99,183.022,48.67,184.44,65.543l24.359,290.927   C210.377,375.141,225.973,389.496,244.709,389.496z"
       id="path5"
       style="fill:#ffcc00" /><path
       d="M244.709,410.908c-21.684,0-39.256,17.571-39.256,39.256c0,21.683,17.572,39.254,39.256,39.254   s39.256-17.571,39.256-39.254C283.965,428.479,266.393,410.908,244.709,410.908z"
       id="path7"
       style="fill:#ffcc00" /></g><g
     id="g9" /><g
     id="g11" /><g
     id="g13" /><g
     id="g15" /><g
     id="g17" /><g
     id="g19" /><g
     id="g21" /><g
     id="g23" /><g
     id="g25" /><g
     id="g27" /><g
     id="g29" /><g
     id="g31" /><g
     id="g33" /><g
     id="g35" /><g
     id="g37" /></svg>