<?xml version="1.0" encoding="UTF-8" standalone="no"?>
<!-- Created with Inkscape (http://www.inkscape.org/) -->

<svg
   xmlns:dc="http://purl.org/dc/elements/1.1/"
   xmlns:cc="http://creativecommons.org/ns#"
   xmlns:rdf="http://www.w3.org/1999/02/22-rdf-syntax-ns#"
   xmlns:svg="http://www.w3.org/2000/svg"
   xmlns="http://www.w3.org/2000/svg"
   xmlns:sodipodi="http://sodipodi.sourceforge.net/DTD/sodipodi-0.dtd"
   xmlns:inkscape="http://www.inkscape.org/namespaces/inkscape"
   id="svg3379"
   version="1.1"
   inkscape:version="0.91 r13725"
   width="272.5"
   height="998.75"
   viewBox="0 0 272.5 998.75"
   sodipodi:docname="mission.svg">
  <metadata
     id="metadata3385">
    <rdf:RDF>
      <cc:Work
         rdf:about="">
        <dc:format>image/svg+xml</dc:format>
        <dc:type
           rdf:resource="http://purl.org/dc/dcmitype/StillImage" />
        <dc:title />
      </cc:Work>
    </rdf:RDF>
  </metadata>
  <defs
     id="defs3383" />
  <sodipodi:namedview
     pagecolor="#ffffff"
     bordercolor="#666666"
     borderopacity="1"
     objecttolerance="10"
     gridtolerance="10"
     guidetolerance="10"
     inkscape:pageopacity="0"
     inkscape:pageshadow="2"
     inkscape:window-width="1440"
     inkscape:window-height="837"
     id="namedview3381"
     showgrid="false"
     inkscape:zoom="0.67083855"
     inkscape:cx="-138.77892"
     inkscape:cy="499.375"
     inkscape:window-x="1432"
     inkscape:window-y="-8"
     inkscape:window-maximized="1"
     inkscape:current-layer="svg3379" />
  <g
     id="g3334"
     transform="translate(0.9813388,0.9813433)">
    <path
       style="fill:#fbe1a2"
       d="M 123.68329,996.93168 C 102.23308,993.78561 87.751972,986.35466 71.765755,970.29031 57.314879,955.7688 52.289559,948.26166 47.602211,934.19327 38.966195,908.27354 38.290662,895.16736 44.357922,871.25 c 4.538509,-17.89096 8.94735,-26.51016 20.065162,-39.22699 16.444844,-18.81001 26.924931,-25.3836 50.045446,-31.39082 15.75533,-4.09358 26.61242,-4.0774 42.58212,0.0634 20.35574,5.27809 29.0651,10.2155 42.88833,24.31374 18.21957,18.58204 24.66617,31.63561 29.46142,59.65575 1.61708,9.44905 1.72318,13.37875 0.58559,21.68726 -1.80041,13.14944 -6.61553,29.66818 -11.62911,39.8948 -4.90638,10.00795 -25.95519,32.31954 -36.46907,38.65695 -9.10621,5.48892 -24.1893,10.78605 -33.76281,11.85742 -4.125,0.46161 -8.90625,1.04157 -10.625,1.2888 -1.71875,0.24721 -7.93627,-0.25618 -13.81671,-1.11865 z m 1.45212,-365.7083 C 116.54389,629.41812 104.48864,623.22873 98.005444,617.29435 90.902666,610.79284 79.202639,595.32581 73.00768,584.2482 68.059329,575.39971 49.488776,520.37721 43.729442,497.5 38.168558,475.41108 24.154926,407.63008 20.70064,386.11452 15.487423,353.64319 7.6272444,295.44561 5.609072,274.375 4.555477,263.375 3.1388816,240.59375 2.4610824,223.75 1.783283,206.90625 0.97449944,192.0243 0.66378555,190.679 0.35307168,189.3337 0.67535805,168.80245 1.3799779,145.054 2.7607669,98.515988 4.6532885,82.113071 10.755055,63.798072 18.011076,42.018475 32.619654,24.579957 51.31194,15.384603 69.418916,6.4771808 80.835898,3.825604 110.75597,1.5788157 c 24.08955,-1.80895758 28.64963,-1.80854725 52.5,0.00472 29.6466,2.2539408 41.36724,4.9722386 59.24403,13.7401103 22.40157,10.987106 37.8196,32.343472 44.43641,61.55135 2.84618,12.563594 3.21761,17.740641 4.30484,60.000004 0.77014,29.93429 0.75696,53.96689 -0.0374,68.125 -2.54558,45.37375 -3.90181,64.85954 -5.61154,80.625 -2.95049,27.20651 -15.29912,108.75847 -19.87903,131.28379 -9.05459,44.53308 -17.15136,80.43202 -20.85516,92.46621 -10.43117,33.89233 -20.56229,63.37174 -24.48635,71.25 -7.99158,16.04453 -22.77659,34.51171 -33.49683,41.83914 -11.08695,7.57807 -29.23546,11.38662 -41.73959,8.75924 z"
       id="path3348"
       inkscape:connector-curvature="0" />
    <path
       style="fill:#fbd75f"
       d="M 115,994.23582 C 94.794651,988.28144 87.151898,983.68242 71.764057,968.21866 55.817081,952.193 51.03778,943.99968 45.460175,923.125 39.103665,899.3352 41.907462,873.26784 53.325477,850 c 3.726449,-7.59383 7.2318,-11.99901 18.450015,-23.18618 15.178464,-15.13645 19.934412,-18.04763 38.996618,-23.87043 21.20349,-6.47689 45.40591,-4.0554 67.83078,6.78656 13.07365,6.32084 35.11586,29.99148 41.2465,44.2937 4.8005,11.1991 9.28439,32.23674 9.26638,43.47635 -0.0213,13.3081 -4.85152,32.6352 -11.80862,47.24966 -4.15079,8.71936 -6.97255,12.41558 -17.68546,23.16609 -14.54042,14.59144 -25.12048,20.95409 -43.8857,26.39204 -14.49347,4.20004 -26.31036,4.17916 -40.73599,-0.072 z M 125.6377,629.78097 C 109.77195,626.75544 96.85409,617.01385 83.510462,598.01205 71.409113,580.77929 69.018231,575.12912 55.107181,530.88901 47.463019,506.57895 42.938212,488.92665 35.785325,455.51007 30.648229,431.51079 25.293426,405.40625 23.885765,397.5 20.675614,379.4699 9.3893459,298.81049 7.619485,281.25 -1.7455066,188.33092 -1.0781626,116.30394 9.5535944,72.5 13.64405,55.646901 26.170645,34.208705 36.78902,25.888897 49.63452,15.824073 70.046486,7.9851526 94.97465,3.5435478 c 16.96924,-3.02351485 60.1042,-3.70359317 77.02843,-1.2144527 31.16323,4.5833515 56.07252,14.4965079 69.05972,27.4837109 13.39773,13.397714 20.37536,28.022479 25.88699,54.257701 2.89328,13.772005 3.32765,19.560153 4.33778,57.804493 1.17978,44.6664 0.81292,53.59249 -5.00912,121.875 -2.17356,25.49221 -13.40679,108.65044 -18.23614,135 -3.69347,20.15201 -20.55275,97.27092 -23.13211,105.8125 -11.82416,39.15586 -22.98379,70.87956 -28.07883,79.82017 -15.75228,27.64168 -30.53077,40.8518 -50.41753,45.06702 -9.3393,1.97956 -11.91709,2.02066 -20.77614,0.33128 z"
       id="path3346"
       inkscape:connector-curvature="0" />
    <path
       style="fill:#fdd600"
       d="M 124.79167,996.5588 C 124.5625,996.04115 119.875,994.31182 114.375,992.71587 93.932699,986.78406 79.592704,977.17123 64.655962,959.38665 55.613411,948.62005 51.124609,939.33041 46.906957,922.65486 c -4.7596,-18.81828 -5.115665,-26.00831 -2.028775,-40.96718 5.674689,-27.49918 10.987162,-37.75019 28.77576,-55.52607 12.078871,-12.07022 19.894772,-16.53755 38.221058,-21.84597 16.7035,-4.83837 27.37647,-5.19939 41.875,-1.41646 25.3266,6.60816 32.86403,11.09453 49.20086,29.28506 11.9726,13.33107 16.2491,21.51694 21.03931,40.27235 5.71079,22.35973 5.06042,34.45572 -3.26727,60.76642 -4.19174,13.24349 -10.77456,23.17677 -23.96223,36.15822 -12.15872,11.96862 -25.82783,19.81405 -41.60188,23.87753 -4.89984,1.26223 -8.90879,2.73288 -8.90879,3.2681 0,1.2512 -20.90479,1.28233 -21.45833,0.0319 z m 0.84603,-367.96521 c -9.17507,-1.84177 -20.50676,-7.69733 -26.760884,-13.8285 C 90.577982,606.62941 79.50161,591.19158 73.82291,579.84587 69.196808,570.6032 58.359981,538.78636 48.921573,506.73572 44.659605,492.26307 27.525541,411.70271 23.794336,388.59334 14.427061,330.57672 7.0717299,267.99547 4.2729713,222.5 3.7866001,214.59375 2.8717694,207.7885 2.240014,207.37721 0.78346866,206.42897 0.85084145,136.03432 2.309211,135.0766 2.8968066,134.69071 3.7199288,127.34375 4.1383714,118.75 5.011487,100.81841 8.7962199,78.59889 13.293805,65 16.830764,54.305659 24.472612,40.724557 31.049249,33.445008 43.498024,19.665701 66.857764,9.3818893 95.725955,4.9719546 101.17043,4.140251 106.94411,2.8388924 108.55636,2.0800464 c 3.76514,-1.77216136 56.25824,-1.84343309 57.47081,-0.07803 0.46631,0.6788981 5.75508,1.9264222 11.75283,2.7722758 5.99775,0.8458538 15.8415,2.9554813 21.875,4.6880613 41.81569,12.0077925 61.18359,36.7531515 67.92769,86.7876465 0.88034,6.53125 2.05323,12.48021 2.60643,13.2199 0.55319,0.7397 1.1417,23.19854 1.30779,49.90852 0.23204,37.31519 -0.0511,48.68132 -1.22246,49.07177 -0.87185,0.29061 -1.52848,2.7378 -1.53386,5.71647 -0.0482,26.69403 -14.41427,144.0144 -23.29122,190.20834 -5.04137,26.23431 -19.06993,90.50247 -21.82817,100 -8.99781,30.9825 -23.17259,71.46679 -27.97058,79.88616 -8.66653,15.2078 -21.26131,30.38015 -29.80049,35.89929 -12.14321,7.84854 -27.29509,11.02611 -40.21243,8.43314 z"
       id="path3344"
       inkscape:connector-curvature="0" />
    <path
       style="fill:#fdc700"
       d="m 124.79167,996.5588 c -0.22917,-0.51765 -4.91667,-2.24698 -10.41667,-3.84293 -5.5,-1.59596 -13.39492,-4.51855 -17.544273,-6.49465 -15.057318,-7.17093 -35.882835,-27.99683 -43.051178,-43.05194 -4.230435,-8.88487 -9.867568,-30.28597 -10.836278,-41.13942 -0.727008,-8.14541 2.824963,-28.82985 6.43398,-37.46745 2.297903,-5.49965 5.128548,-5.9081 6.228779,-0.89878 0.442566,2.01499 1.696215,4.40562 2.785885,5.3125 3.148073,2.61998 16.308326,6.1231 27.858085,7.4155 5.84375,0.65391 13.566059,2.28338 17.16069,3.62107 4.3687,1.62574 9.75657,2.44116 16.25,2.45933 30.16051,0.0844 39.09605,-0.30163 45.68112,-1.97345 3.96925,-1.00772 10.71925,-1.71694 15,-1.57606 6.11065,0.20113 8.72334,-0.32611 12.15819,-2.4535 2.40625,-1.49032 5.69441,-2.71178 7.30704,-2.71434 3.19893,-0.005 8.59792,-3.32858 14.77245,-9.09354 2.17497,-2.0307 4.47731,-3.36906 5.11631,-2.97414 1.6856,1.04175 6.35497,17.59692 7.6331,27.063 1.44975,10.7372 -0.19664,23.19664 -5.28145,39.9685 -5.31307,17.52477 -10.06772,25.27291 -24.25447,39.52496 -9.4943,9.538 -13.57778,12.63441 -22.65372,17.17784 -6.08942,3.04837 -15.08064,6.57524 -19.98047,7.83746 -4.89984,1.26223 -8.90879,2.73288 -8.90879,3.2681 0,1.2512 -20.90479,1.28233 -21.45833,0.0319 z m 0.84603,-367.96521 c -9.17507,-1.84177 -20.50676,-7.69733 -26.760884,-13.8285 C 90.577982,606.62941 79.50161,591.19158 73.82291,579.84587 69.196808,570.6032 58.359981,538.78636 48.921573,506.73572 44.659605,492.26307 27.525541,411.70271 23.794336,388.59334 14.067026,328.34684 6.9127865,267.16294 5.7890601,234.61011 c -0.4753386,-13.76991 -0.3121272,-15.69739 1.1642981,-13.75 0.9444234,1.24569 1.7350228,3.1734 1.7568875,4.28381 0.05523,2.8049 5.0347953,8.87277 6.7527493,8.2286 C 21.64098,231.056 22.5,231.0918 22.5,233.66576 c 0,2.12008 0.785799,2.58424 4.375,2.58424 3.833334,0 4.375,0.3869 4.375,3.125 0,2.63889 0.583334,3.125 3.75,3.125 3.219662,0 3.75,-0.46668 3.75,-3.29988 0,-3.2644 0.07617,-3.29202 7.085365,-2.56861 3.977977,0.41056 8.135121,0.16946 9.478984,-0.54975 1.794149,-0.9602 2.940076,-0.78649 4.575561,0.69361 1.200068,1.08604 3.676976,1.97463 5.504241,1.97463 2.600495,0 3.710315,-0.92865 5.108252,-4.27439 0.982273,-2.35091 2.849032,-4.84332 4.148352,-5.5387 3.051714,-1.63322 13.176323,-0.32402 14.473858,1.8716 1.063842,1.80018 11.007127,2.39301 12.646327,0.75399 0.51568,-0.51563 6.17462,-0.9375 12.57542,-0.9375 9.32884,0 12.11772,-0.43401 14.05665,-2.1875 3.75023,-3.39156 17.89733,-3.08798 21.09075,0.45258 2.14181,2.37463 3.26103,2.5618 11.13124,1.86153 4.8125,-0.4282 10.67644,-0.22106 13.03096,0.46031 3.19341,0.92414 5.66556,0.76879 9.73119,-0.61152 2.99762,-1.01772 7.64226,-1.8504 10.32141,-1.8504 3.93588,0 5.36135,0.68834 7.42389,3.58491 1.40397,1.97171 4.32086,4.31733 6.48196,5.21248 3.63198,1.50441 4.09843,1.40335 6.16456,-1.3358 1.69862,-2.2519 2.6387,-2.63678 3.91565,-1.60308 0.92421,0.74817 3.93038,1.67295 6.68038,2.0551 2.75,0.38214 6.82812,1.07175 9.0625,1.53248 2.65259,0.54694 4.0625,0.3546 4.0625,-0.55421 0,-0.81692 2.3306,-1.39188 5.64196,-1.39188 3.10308,0 6.72786,-0.67816 8.05508,-1.50701 1.97001,-1.2303 2.8457,-1.11554 4.76896,0.625 3.23509,2.92771 4.64145,2.69069 7.7461,-1.30549 l 2.67062,-3.4375 -0.69687,9.375 c -0.38328,5.15625 -0.99541,16.40625 -1.3603,25 -0.7928,18.67164 -1.23754,22.34979 -9.97535,82.5 -6.82321,46.97026 -9.95841,64.03491 -21.81731,118.75 -7.3364,33.84899 -8.03187,36.36361 -21.51199,77.7832 -11.05781,33.97664 -15.16243,42.47993 -29.1561,60.40084 -12.6057,16.14342 -24.94453,23.28926 -42.83115,24.80497 -3.93726,0.33365 -9.96544,0.0432 -13.39595,-0.64542 z M 1.4936859,203.125 c 0.025475,-2.0625 0.3056232,-2.75492 0.6225525,-1.53871 0.3169292,1.21621 0.2960864,2.90371 -0.046317,3.75 -0.3424039,0.84628 -0.6017097,-0.14879 -0.576235,-2.21129 z"
       id="path3342"
       inkscape:connector-curvature="0" />
    <path
       style="fill:#fdb700"
       d="m 124.79167,996.5588 c -0.22917,-0.51765 -4.91667,-2.24698 -10.41667,-3.84293 -5.5,-1.59596 -13.39492,-4.51855 -17.544273,-6.49465 -15.057318,-7.17093 -35.882835,-27.99683 -43.051178,-43.05194 -3.936974,-8.26853 -9.480682,-28.68509 -10.771858,-39.67098 -0.730475,-6.21521 1.19222,-19.7483 2.805714,-19.7483 1.086722,0 9.199104,9.39511 9.849419,11.40681 0.607488,1.87921 8.428117,3.66168 16.202801,3.69289 1.369842,0.005 3.651591,0.7707 5.070551,1.70044 2.708141,1.77443 4.729738,2.04731 34.938824,4.71585 10.3125,0.91096 19.37867,2.05471 20.14706,2.54167 0.76839,0.48696 5.26839,0.288 10,-0.44215 4.73161,-0.73015 11.69669,-1.50418 15.47794,-1.72007 3.78125,-0.2159 8.45849,-1.01194 10.39387,-1.76899 1.93538,-0.75705 9.0641,-1.37645 15.84159,-1.37645 11.32055,0 12.62476,-0.25415 16.03658,-3.125 2.54248,-2.13936 5.23395,-3.13039 8.53341,-3.14206 7.93222,-0.0281 10.50016,-1.19848 11.28954,-5.1454 0.39464,-1.97314 1.2097,-3.58754 1.81126,-3.58754 0.60156,0 1.09375,-1.0918 1.09375,-2.42622 0,-5.12167 2.32104,-3.53036 3.79158,2.59952 2.34611,9.77971 0.86832,24.49664 -4.08269,40.65841 -5.50034,17.95497 -10.18901,25.61938 -24.41592,39.91175 -9.4943,9.538 -13.57777,12.63442 -22.65371,17.17784 -6.08942,3.04838 -15.08064,6.57524 -19.98047,7.83746 -4.89984,1.26223 -8.90879,2.73288 -8.90879,3.2681 0,1.2512 -20.90479,1.28233 -21.45833,0.0319 z M 125.6377,628.59359 C 110.33416,625.52162 99.529529,617.61205 86.136411,599.67649 75.63479,585.61311 69.776696,572.91717 60.697636,544.54439 47.505815,503.31887 45.617402,496.09054 35.798126,449.23572 23.539742,390.74216 18.948305,362.71161 14.33885,318.22764 c -1.932366,-18.64848 -1.724341,-20.62487 2.17967,-20.7085 1.583195,-0.0339 3.496476,4.73731 2.715648,6.77212 -0.543799,1.41711 0.506976,2.50043 3.732581,3.84818 2.920416,1.22022 4.762896,2.96531 5.27186,4.99319 0.641667,2.55661 1.54503,3.11737 5.021901,3.11737 3.196049,0 4.244805,-0.5384 4.261086,-2.1875 0.01187,-1.20313 1.373581,-3.46929 3.026009,-5.03593 2.947299,-2.79427 3.224029,-2.81918 14.557187,-1.31027 10.911179,1.45273 11.626098,1.7324 12.873039,5.03592 1.279282,3.38921 1.602764,3.49778 10.421216,3.49778 7.879517,0 9.100953,-0.29746 9.100953,-2.21645 0,-1.62721 2.327144,-3.00871 8.753892,-5.19669 7.596028,-2.58605 9.392568,-2.7889 13.582528,-1.53355 2.65574,0.79568 5.96012,1.44669 7.34305,1.44669 1.38293,0 3.21467,0.84375 4.07053,1.875 1.17339,1.41384 4.36227,1.87859 12.96555,1.8896 9.17272,0.0113 13.31275,-0.64475 21.11807,-3.3487 l 9.70863,-3.36331 7.79137,2.73636 c 4.28527,1.505 10.46325,2.73066 13.72888,2.7237 5.10839,-0.0113 5.9375,0.33645 5.9375,2.48735 0,1.66666 0.83334,2.5 2.5,2.5 1.66666,0 2.5,-0.83334 2.5,-2.5 0,-2.91668 0.43492,-3.03021 3.72849,-0.97335 2.11817,1.32284 2.97016,0.98905 6.38136,-2.5 3.93434,-4.02414 3.94489,-4.02665 16.91347,-4.02665 l 12.97668,0 0,5 c 0,4.5 0.3125,5 3.125,5 2.17592,0 3.125,-0.68334 3.125,-2.25 0,-3.7147 2.66406,-5.25 9.10988,-5.25 l 6.10987,0 -0.752,4.6875 c -0.4136,2.57812 -1.27357,9.75 -1.91105,15.9375 -4.03666,39.18101 -8.99783,68.13322 -22.0622,128.75 -9.15589,42.48194 -9.47708,43.67006 -23.2236,85.9082 -11.05781,33.97664 -15.16243,42.47993 -29.1561,60.40084 -12.6057,16.14342 -24.94453,23.28926 -42.83115,24.80497 -3.93726,0.33365 -9.96544,0.0432 -13.39595,-0.64542 z"
       id="path3340"
       inkscape:connector-curvature="0" />
    <path
       style="fill:#fda800"
       d="M 124.79167,996.5588 C 124.5625,996.04115 119.875,994.31182 114.375,992.71587 93.932699,986.78406 79.592704,977.17123 64.655962,959.38665 53.941284,946.62911 48.481492,933.4309 45.537699,913.17117 l -0.901433,-6.20381 5.982855,5.26631 c 3.467623,3.05233 7.239516,5.26633 8.972015,5.26633 1.644038,0 5.008539,0.84375 7.476668,1.875 2.468128,1.03125 5.597647,1.875 6.954486,1.875 1.356839,0 3.960019,0.80258 5.784845,1.78349 6.422906,3.45259 61.036565,6.8056 73.317865,4.50136 4.125,-0.77394 14.27615,-1.89117 22.55813,-2.48276 14.38482,-1.0275 29.09189,-4.37468 36.72581,-8.3584 1.76883,-0.92305 4.15456,-1.68175 5.30161,-1.68599 1.14705,-0.004 3.32059,-2.00604 4.83009,-4.44845 1.50948,-2.44241 2.89686,-4.27054 3.08303,-4.0625 0.9054,1.01169 -2.20082,17.76152 -4.94906,26.68705 -4.04322,13.13132 -10.66739,23.15801 -23.91393,36.19742 -12.15873,11.96863 -25.82784,19.81405 -41.60189,23.87754 -4.89984,1.26223 -8.90879,2.73288 -8.90879,3.2681 0,1.2512 -20.90479,1.28233 -21.45833,0.0319 z m 0.84603,-367.96521 c -9.17507,-1.84177 -20.50676,-7.69733 -26.760884,-13.8285 C 90.052441,606.1142 79.034113,590.47788 73.133368,578.23205 67.547234,566.63914 52.703169,521.6398 46.295876,496.875 42.105434,480.67854 27.857906,411.71902 26.280809,400 c -2.770718,-20.58853 -3.860704,-28.42337 -4.477935,-32.1875 -0.565343,-3.44769 -0.288989,-4.0625 1.826082,-4.0625 2.734263,0 8.871044,5.0713 8.871044,7.33084 0,0.94062 3.372011,1.41916 10,1.41916 l 10,0 0,5 c 0,4.16666 0.416666,5 2.5,5 1.833334,0 2.5,-0.83334 2.5,-3.125 0,-2.98611 0.333334,-3.125 7.5,-3.125 4.166666,0 7.5,0.55555 7.5,1.25 0,0.6875 1.125,1.25 2.5,1.25 1.375,0 2.5,-0.5625 2.5,-1.25 0,-0.6875 2.25,-1.25 5,-1.25 4.722222,0 5,-0.20834 5,-3.75 l 0,-3.75 11,0 c 11.34795,0 14,0.99451 14,5.25 0,1.91666 1.11111,2.25 7.5,2.25 5.83334,0 7.5,-0.41666 7.5,-1.875 0,-1.3443 1.37189,-1.875 4.84695,-1.875 2.78345,0 5.50943,-0.79824 6.40305,-1.875 1.86319,-2.245 10.12702,-2.49798 12.25,-0.375 0.825,0.825 1.5,2.5125 1.5,3.75 0,1.91666 1.11111,2.25 7.5,2.25 6.38889,0 7.5,-0.33334 7.5,-2.25 0,-3.7 2.65714,-5.25 9,-5.25 5.83334,0 6,0.10412 6,3.75 0,3.54166 0.27777,3.75 5,3.75 2.75,0 5,0.5625 5,1.25 0,0.6875 1.125,1.25 2.5,1.25 1.375,0 2.5,-0.5625 2.5,-1.25 0,-0.69445 3.33334,-1.25 7.5,-1.25 7.16666,0 7.5,0.13889 7.5,3.125 0,2.29166 0.66666,3.125 2.5,3.125 1.83334,0 2.5,-0.83334 2.5,-3.125 0,-2.8125 0.5,-3.125 5,-3.125 3.61111,0 5,-0.52084 5,-1.875 0,-1.45834 1.66666,-1.875 7.5,-1.875 5.83334,0 7.5,0.41666 7.5,1.875 0,1.03125 0.84375,1.875 1.875,1.875 1.24164,0 1.875,-1.2418 1.875,-3.67623 0,-3.39111 1.87235,-6.11808 3.25284,-4.7376 1.909,1.90899 -13.4874,85.90876 -22.82078,124.50583 -3.06006,12.6545 -18.51282,62.12773 -24.06704,77.0525 -6.91367,18.57779 -24.44091,42.80057 -36.70583,50.72779 -12.20267,7.88696 -27.33013,11.0691 -40.27149,8.4713 z"
       id="path3338"
       inkscape:connector-curvature="0" />
    <path
       style="fill:#fd9300"
       d="m 124.79167,996.51344 c -0.22917,-0.5426 -4.07292,-1.98909 -8.54167,-3.2144 -4.46875,-1.22531 -12.88916,-4.45902 -18.71203,-7.186 -9.221426,-4.31863 -12.305555,-6.6922 -23.910125,-18.40146 -12.76732,-12.88251 -18.332438,-20.91063 -20.379032,-29.39837 l -0.858832,-3.56178 3.685473,2.62428 c 2.02701,1.44336 4.13436,2.62429 4.683,2.62429 0.54864,0 2.711807,1.62269 4.807037,3.60596 5.056329,4.78617 16.279563,7.72111 35.059509,9.1683 8.25,0.63575 16.71905,1.898 18.8201,2.80502 4.01609,1.7337 24.44361,0.95712 46.1799,-1.75559 5.5,-0.68641 13.09279,-1.61828 16.87285,-2.07084 3.78006,-0.45255 10.20787,-2.43832 14.28401,-4.41284 4.07615,-1.9745 8.56178,-3.59001 9.96808,-3.59001 1.42538,0 4.67103,-2.35095 7.33428,-5.3125 4.09463,-4.55326 4.66738,-4.86589 4.00767,-2.1875 -2.46253,9.99774 -8.88775,19.68951 -21.12914,31.87115 -13.93296,13.86496 -21.15732,18.34729 -38.21275,23.709 -5.84375,1.8371 -11.60174,3.86436 -12.79554,4.50501 -2.63341,1.41324 -20.57737,1.5644 -21.16279,0.17828 z M 126.875,628.78516 C 108.79036,624.92853 96.819556,615.61616 82.587963,594.33325 72.677515,579.51247 69.537238,571.84907 57.745401,533.70849 49.033141,505.52877 46.341485,494.98644 40.596684,466.5426 37.136071,449.40831 36.952851,447.5 38.768372,447.5 c 2.117705,0 6.300077,7.91816 5.942245,11.25 -0.302312,2.81489 0.06753,3.09351 3.726883,2.80774 3.95972,-0.30923 4.0625,-0.19064 4.0625,4.6875 0,3.61535 0.520536,5.00476 1.875,5.00476 1.091773,0 1.875,-1.13532 1.875,-2.71789 l 0,-2.7179 3.125,2.93579 c 1.71875,1.61469 3.125,3.96274 3.125,5.21789 0,1.44877 0.912899,2.28211 2.5,2.28211 1.375,0 2.5,-0.55179 2.5,-1.22619 0,-0.6744 1.40625,-1.57912 3.125,-2.01051 1.71875,-0.43138 3.125,-1.58101 3.125,-2.55475 0,-2.30241 5.132191,-4.20855 11.331375,-4.20855 3.344469,0 4.918625,0.55109 4.918625,1.72195 0,0.94706 0.778976,2.36843 1.731059,3.15859 1.38358,1.14827 1.896786,0.77633 2.556685,-1.85292 0.686585,-2.73556 1.289728,-3.13062 3.581441,-2.34586 1.515699,0.51903 6.693315,1.19071 11.505815,1.49262 4.8125,0.30191 9.3125,0.97737 10,1.50102 1.89429,1.44285 40.37532,1.48986 41.26495,0.0504 0.41667,-0.67417 2.13065,-1.22578 3.80882,-1.22578 1.67818,0 3.05123,-0.5625 3.05123,-1.25 0,-0.6875 1.67679,-1.25 3.72619,-1.25 2.90249,0 3.89454,0.6708 4.48781,3.03455 1.37242,5.4682 7.19957,5.4682 8.572,0 0.86964,-3.46486 2.91219,-3.84687 6.41259,-1.1993 1.33452,1.00938 3.64603,1.85313 5.13667,1.875 4.39769,0.0645 6.66474,1.3991 6.66474,3.92349 0,1.30144 0.45425,2.36626 1.00944,2.36626 0.5552,0 2.01495,2.27904 3.24391,5.06454 2.64495,5.99492 4.68778,5.84139 6.27961,-0.47198 0.63688,-2.52591 1.9025,-4.59256 2.8125,-4.59256 0.90999,0 1.65454,-1.125 1.65454,-2.5 0,-3.78221 4.39373,-3.11235 7.41489,1.13046 3.22493,4.52901 3.2273,7.21819 0.0182,20.73 -3.04007,12.8003 -18.45573,62.53044 -23.25348,75.01454 -7.16417,18.64171 -23.493,41.20546 -35.73565,49.38079 -11.46648,7.65702 -27.46924,11.25307 -39.06901,8.77937 z"
       id="path3336"
       inkscape:connector-curvature="0" />
  </g>
  <path
     style="fill:#000000"
     d=""
     id="path3389"
     inkscape:connector-curvature="0" />
</svg>
